<?xml version="1.0" encoding="UTF-8" standalone="no"?>
<!-- Generator: Adobe Illustrator 19.0.0, SVG Export Plug-In . SVG Version: 6.00 Build 0)  -->

<svg
   xmlns:dc="http://purl.org/dc/elements/1.1/"
   xmlns:cc="http://creativecommons.org/ns#"
   xmlns:rdf="http://www.w3.org/1999/02/22-rdf-syntax-ns#"
   xmlns:svg="http://www.w3.org/2000/svg"
   xmlns="http://www.w3.org/2000/svg"
   xmlns:sodipodi="http://sodipodi.sourceforge.net/DTD/sodipodi-0.dtd"
   xmlns:inkscape="http://www.inkscape.org/namespaces/inkscape"
   version="1.1"
   id="Capa_1"
   x="0px"
   y="0px"
   viewBox="0 0 469.333 469.333"
   style="enable-background:new 0 0 469.333 469.333;"
   xml:space="preserve"
   sodipodi:docname="minus-front.svg"
   inkscape:version="0.92.2 (5c3e80d, 2017-08-06)"
   inkscape:export-filename="C:\Users\Federico Herrera\Desktop\svgPreliminar\minus-front.png"
   inkscape:export-xdpi="28.431776"
   inkscape:export-ydpi="28.431776"><metadata
     id="metadata78"><rdf:RDF><cc:Work
         rdf:about=""><dc:format>image/svg+xml</dc:format><dc:type
           rdf:resource="http://purl.org/dc/dcmitype/StillImage" /></cc:Work></rdf:RDF></metadata><defs
     id="defs76" /><sodipodi:namedview
     pagecolor="#ffffff"
     bordercolor="#666666"
     borderopacity="1"
     objecttolerance="10"
     gridtolerance="10"
     guidetolerance="10"
     inkscape:pageopacity="0"
     inkscape:pageshadow="2"
     inkscape:window-width="1920"
     inkscape:window-height="1001"
     id="namedview74"
     showgrid="false"
     inkscape:zoom="0.50284126"
     inkscape:cx="234.6665"
     inkscape:cy="234.6665"
     inkscape:window-x="-9"
     inkscape:window-y="-9"
     inkscape:window-maximized="1"
     inkscape:current-layer="Capa_1" /><g
     id="g32"><path
       style="fill:#303C42;"
       d="M199.104,138.667c0,5.896,4.771,10.667,10.667,10.667h49.771c5.896,0,10.667-4.771,10.667-10.667   S265.438,128,259.542,128h-49.771C203.875,128,199.104,132.771,199.104,138.667z"
       id="path2" /><path
       style="fill:#303C42;"
       d="M298.667,138.667c0,5.896,4.771,10.667,10.667,10.667H320V160c0,5.896,4.771,10.667,10.667,10.667   c5.896,0,10.667-4.771,10.667-10.667v-21.333c0-5.896-4.771-10.667-10.667-10.667h-21.333   C303.438,128,298.667,132.771,298.667,138.667z"
       id="path4" /><path
       style="fill:#303C42;"
       d="M330.667,199.115c-5.896,0-10.667,4.771-10.667,10.667v49.781c0,5.896,4.771,10.667,10.667,10.667   c5.896,0,10.667-4.771,10.667-10.667v-49.781C341.333,203.885,336.563,199.115,330.667,199.115z"
       id="path6" /><path
       style="fill:#303C42;"
       d="M138.667,99.552c5.896,0,10.667-4.771,10.667-10.667V60.438c0-5.896-4.771-10.667-10.667-10.667   S128,54.542,128,60.438v28.448C128,94.781,132.771,99.552,138.667,99.552z"
       id="path8" /><path
       style="fill:#303C42;"
       d="M138.667,42.667c5.896,0,10.667-4.771,10.667-10.667V21.333H160c5.896,0,10.667-4.771,10.667-10.667   S165.896,0,160,0h-21.333C132.771,0,128,4.771,128,10.667V32C128,37.896,132.771,42.667,138.667,42.667z"
       id="path10" /><path
       style="fill:#303C42;"
       d="M358.104,21.333h39.625c5.896,0,10.667-4.771,10.667-10.667S403.625,0,397.729,0h-39.625   c-5.896,0-10.667,4.771-10.667,10.667S352.208,21.333,358.104,21.333z"
       id="path12" /><path
       style="fill:#303C42;"
       d="M199.625,21.333h39.625c5.896,0,10.667-4.771,10.667-10.667S245.146,0,239.25,0h-39.625   c-5.896,0-10.667,4.771-10.667,10.667S193.729,21.333,199.625,21.333z"
       id="path14" /><path
       style="fill:#303C42;"
       d="M278.854,21.333h39.625c5.896,0,10.667-4.771,10.667-10.667S324.375,0,318.479,0h-39.625   c-5.896,0-10.667,4.771-10.667,10.667S272.958,21.333,278.854,21.333z"
       id="path16" /><path
       style="fill:#303C42;"
       d="M458.667,0h-21.333c-5.896,0-10.667,4.771-10.667,10.667s4.771,10.667,10.667,10.667H448V32   c0,5.896,4.771,10.667,10.667,10.667c5.896,0,10.667-4.771,10.667-10.667V10.667C469.333,4.771,464.563,0,458.667,0z"
       id="path18" /><path
       style="fill:#303C42;"
       d="M458.667,219.427c-5.896,0-10.667,4.771-10.667,10.667v39.615c0,5.896,4.771,10.667,10.667,10.667   c5.896,0,10.667-4.771,10.667-10.667v-39.615C469.333,224.198,464.563,219.427,458.667,219.427z"
       id="path20" /><path
       style="fill:#303C42;"
       d="M458.667,140.188c-5.896,0-10.667,4.771-10.667,10.667v39.615c0,5.896,4.771,10.667,10.667,10.667   c5.896,0,10.667-4.771,10.667-10.667v-39.615C469.333,144.958,464.563,140.188,458.667,140.188z"
       id="path22" /><path
       style="fill:#303C42;"
       d="M458.667,60.948c-5.896,0-10.667,4.771-10.667,10.667v39.615c0,5.896,4.771,10.667,10.667,10.667   c5.896,0,10.667-4.771,10.667-10.667V71.615C469.333,65.719,464.563,60.948,458.667,60.948z"
       id="path24" /><path
       style="fill:#303C42;"
       d="M458.667,298.667c-5.896,0-10.667,4.771-10.667,10.667V320h-10.667   c-5.896,0-10.667,4.771-10.667,10.667c0,5.896,4.771,10.667,10.667,10.667h21.333c5.896,0,10.667-4.771,10.667-10.667v-21.333   C469.333,303.438,464.563,298.667,458.667,298.667z"
       id="path26" /><path
       style="fill:#303C42;"
       d="M408.896,320h-28.438c-5.896,0-10.667,4.771-10.667,10.667c0,5.896,4.771,10.667,10.667,10.667   h28.438c5.896,0,10.667-4.771,10.667-10.667C419.563,324.771,414.792,320,408.896,320z"
       id="path28" /><path
       style="fill:#303C42;"
       d="M352,320h-10.667v-10.667c0-5.896-4.771-10.667-10.667-10.667c-5.896,0-10.667,4.771-10.667,10.667   V320H149.333V149.333H160c5.896,0,10.667-4.771,10.667-10.667S165.896,128,160,128h-10.667v-10.667   c0-5.896-4.771-10.667-10.667-10.667S128,111.438,128,117.333V128H10.667C4.771,128,0,132.771,0,138.667v320   c0,5.896,4.771,10.667,10.667,10.667h320c5.896,0,10.667-4.771,10.667-10.667V341.333H352c5.896,0,10.667-4.771,10.667-10.667   C362.667,324.771,357.896,320,352,320z"
       id="path30" /></g><path
     style="fill:#EF5350;"
     d="M21.333,448V149.333H128v181.333c0,5.896,4.771,10.667,10.667,10.667H320V448H21.333z"
     id="path34" /><linearGradient
     id="SVGID_1_"
     gradientUnits="userSpaceOnUse"
     x1="-66.8374"
     y1="618.1891"
     x2="-45.2355"
     y2="608.113"
     gradientTransform="matrix(21.3333 0 0 -21.3333 1430.1112 13315.2227)"><stop
       offset="0"
       style="stop-color:#FFFFFF;stop-opacity:0.2"
       id="stop36" /><stop
       offset="1"
       style="stop-color:#FFFFFF;stop-opacity:0"
       id="stop38" /></linearGradient><path
     style="fill:#008000"
     d="M199.104,138.667c0,5.896,4.771,10.667,10.667,10.667h49.771  c5.896,0,10.667-4.771,10.667-10.667S265.438,128,259.542,128h-49.771C203.875,128,199.104,132.771,199.104,138.667z   M298.667,138.667c0,5.896,4.771,10.667,10.667,10.667H320V160c0,5.896,4.771,10.667,10.667,10.667  c5.896,0,10.667-4.771,10.667-10.667v-21.333c0-5.896-4.771-10.667-10.667-10.667h-21.333  C303.438,128,298.667,132.771,298.667,138.667z M330.667,199.115c-5.896,0-10.667,4.771-10.667,10.667v49.781  c0,5.896,4.771,10.667,10.667,10.667c5.896,0,10.667-4.771,10.667-10.667v-49.781C341.333,203.885,336.563,199.115,330.667,199.115z   M138.667,99.552c5.896,0,10.667-4.771,10.667-10.667V60.438c0-5.896-4.771-10.667-10.667-10.667S128,54.542,128,60.438v28.448  C128,94.781,132.771,99.552,138.667,99.552z M138.667,42.667c5.896,0,10.667-4.771,10.667-10.667V21.333H160  c5.896,0,10.667-4.771,10.667-10.667S165.896,0,160,0h-21.333C132.771,0,128,4.771,128,10.667V32  C128,37.896,132.771,42.667,138.667,42.667z M358.104,21.333h39.625c5.896,0,10.667-4.771,10.667-10.667S403.625,0,397.729,0  h-39.625c-5.896,0-10.667,4.771-10.667,10.667S352.208,21.333,358.104,21.333z M199.625,21.333h39.625  c5.896,0,10.667-4.771,10.667-10.667S245.146,0,239.25,0h-39.625c-5.896,0-10.667,4.771-10.667,10.667  S193.729,21.333,199.625,21.333z M278.854,21.333h39.625c5.896,0,10.667-4.771,10.667-10.667S324.375,0,318.479,0h-39.625  c-5.896,0-10.667,4.771-10.667,10.667S272.958,21.333,278.854,21.333z M458.667,0h-21.333c-5.896,0-10.667,4.771-10.667,10.667  s4.771,10.667,10.667,10.667H448V32c0,5.896,4.771,10.667,10.667,10.667c5.896,0,10.667-4.771,10.667-10.667V10.667  C469.333,4.771,464.563,0,458.667,0z M458.667,219.427c-5.896,0-10.667,4.771-10.667,10.667v39.615  c0,5.896,4.771,10.667,10.667,10.667c5.896,0,10.667-4.771,10.667-10.667v-39.615C469.333,224.198,464.563,219.427,458.667,219.427z   M458.667,140.188c-5.896,0-10.667,4.771-10.667,10.667v39.615c0,5.896,4.771,10.667,10.667,10.667  c5.896,0,10.667-4.771,10.667-10.667v-39.615C469.333,144.958,464.563,140.188,458.667,140.188z M458.667,60.948  c-5.896,0-10.667,4.771-10.667,10.667v39.615c0,5.896,4.771,10.667,10.667,10.667c5.896,0,10.667-4.771,10.667-10.667V71.615  C469.333,65.719,464.563,60.948,458.667,60.948z M458.667,298.667c-5.896,0-10.667,4.771-10.667,10.667V320h-10.667  c-5.896,0-10.667,4.771-10.667,10.667c0,5.896,4.771,10.667,10.667,10.667h21.333c5.896,0,10.667-4.771,10.667-10.667v-21.333  C469.333,303.438,464.563,298.667,458.667,298.667z M408.896,320h-28.438c-5.896,0-10.667,4.771-10.667,10.667  c0,5.896,4.771,10.667,10.667,10.667h28.438c5.896,0,10.667-4.771,10.667-10.667C419.563,324.771,414.792,320,408.896,320z M352,320  h-10.667v-10.667c0-5.896-4.771-10.667-10.667-10.667c-5.896,0-10.667,4.771-10.667,10.667V320H149.333V149.333H160  c5.896,0,10.667-4.771,10.667-10.667S165.896,128,160,128h-10.667v-10.667c0-5.896-4.771-10.667-10.667-10.667  S128,111.438,128,117.333V128H10.667C4.771,128,0,132.771,0,138.667v320c0,5.896,4.771,10.667,10.667,10.667h320  c5.896,0,10.667-4.771,10.667-10.667V341.333H352c5.896,0,10.667-4.771,10.667-10.667C362.667,324.771,357.896,320,352,320z"
     id="path41" /><g
     id="g43" /><g
     id="g45" /><g
     id="g47" /><g
     id="g49" /><g
     id="g51" /><g
     id="g53" /><g
     id="g55" /><g
     id="g57" /><g
     id="g59" /><g
     id="g61" /><g
     id="g63" /><g
     id="g65" /><g
     id="g67" /><g
     id="g69" /><g
     id="g71" /></svg>